# File produced by Open Asset Import Library (http://www.assimp.sf.net)
# (assimp v3.1.187496374)

mtllib 1.obj.mtl

# 22 vertex positions
v  -17.831 1.375 4
v  -20.939 1.375 4
v  -20.939 1.375 0
v  -17.831 1.375 0
v  -20.939 8.747 0
v  -21.732 10.874 0
v  -22.775 10.216 0
v  -20.958 11.666 0
v  -17.831 12.625 0
v  -22.399 7.818 0
v  -24.169 9.659 0
v  -24.169 7.14 0
v  -20.374 12.625 0
v  -24.169 9.659 4
v  -22.775 10.216 4
v  -24.169 7.14 4
v  -21.732 10.874 4
v  -20.958 11.666 4
v  -22.399 7.818 4
v  -20.939 8.747 4
v  -17.831 12.625 4
v  -20.374 12.625 4

# 0 UV coordinates

# 12 vertex normals
vn 0 -1 0
vn 0 0 -1
vn -0.371046 0.928614 0
vn -1 0 0
vn -0.715187 0.698933 0
vn 0.357706 -0.933834 0
vn -0.533566 0.845759 0
vn 0 0 1
vn 1 0 0
vn 0 1 0
vn 0.536838 -0.843685 0
vn -0.854095 0.520116 0

# Mesh '<STL_BINARY>' with 40 faces
g <STL_BINARY>
usemtl DefaultMaterial
f  1//1 2//1 3//1
f  1//1 3//1 4//1
f  3//2 5//2 4//2
f  6//2 5//2 7//2
f  8//2 5//2 6//2
f  9//2 4//2 5//2
f  10//2 7//2 5//2
f  9//2 5//2 8//2
f  11//2 7//2 10//2
f  11//2 10//2 12//2
f  9//2 8//2 13//2
f  7//3 11//3 14//3
f  7//3 14//3 15//3
f  11//4 12//4 14//4
f  16//4 14//4 12//4
f  8//5 6//5 17//5
f  8//5 17//5 18//5
f  12//6 10//6 16//6
f  19//6 16//6 10//6
f  6//7 7//7 15//7
f  6//7 15//7 17//7
f  15//8 14//8 19//8
f  17//8 15//8 20//8
f  19//8 20//8 15//8
f  19//8 14//8 16//8
f  21//8 20//8 1//8
f  2//8 1//8 20//8
f  17//8 20//8 18//8
f  21//8 18//8 20//8
f  21//8 22//8 18//8
f  21//9 1//9 4//9
f  4//9 9//9 21//9
f  5//4 3//4 2//4
f  5//4 2//4 20//4
f  22//10 21//10 9//10
f  22//10 9//10 13//10
f  20//11 19//11 10//11
f  20//11 10//11 5//11
f  13//12 8//12 18//12
f  13//12 18//12 22//12

