# File produced by Open Asset Import Library (http://www.assimp.sf.net)
# (assimp v3.1.187496374)

mtllib 4.obj.mtl

# 28 vertex positions
v  49.167 4.97 4
v  49.167 4.97 0
v  49.167 2.443 4
v  49.167 2.443 0
v  57.444 0.375 0
v  57.444 0.375 4
v  54.766 0.375 4
v  54.766 0.375 0
v  54.766 11.625 0
v  54.766 8.308 0
v  51.808 4.827 0
v  57.444 11.625 0
v  54.766 4.827 0
v  57.444 4.827 0
v  54.766 2.443 0
v  57.444 2.443 0
v  58.833 2.443 0
v  58.833 4.827 0
v  57.444 11.625 4
v  54.766 11.625 4
v  51.808 4.827 4
v  54.766 8.308 4
v  54.766 2.443 4
v  54.766 4.827 4
v  57.444 4.827 4
v  57.444 2.443 4
v  58.833 4.827 4
v  58.833 2.443 4

# 0 UV coordinates

# 8 vertex normals
vn -1 0 0
vn 0 -1 0
vn 0 0 -1
vn 0 1 0
vn 0 0 1
vn 1 0 0
vn -0.765206 0.643785 0
vn 0.762031 -0.64754 0

# Mesh '<STL_BINARY>' with 56 faces
g <STL_BINARY>
usemtl DefaultMaterial
f  1//1 2//1 3//1
f  4//1 3//1 2//1
f  5//2 6//2 7//2
f  5//2 7//2 8//2
f  2//3 9//3 10//3
f  2//3 10//3 11//3
f  2//3 11//3 4//3
f  9//3 12//3 10//3
f  13//3 10//3 14//3
f  12//3 14//3 10//3
f  13//3 15//3 11//3
f  15//3 13//3 14//3
f  15//3 4//3 11//3
f  14//3 16//3 15//3
f  8//3 15//3 16//3
f  17//3 16//3 14//3
f  17//3 14//3 18//3
f  8//3 16//3 5//3
f  19//4 12//4 9//4
f  19//4 9//4 20//4
f  21//5 22//5 1//5
f  1//5 3//5 21//5
f  3//5 23//5 21//5
f  24//5 21//5 23//5
f  20//5 1//5 22//5
f  22//5 24//5 25//5
f  25//5 19//5 22//5
f  20//5 22//5 19//5
f  24//5 23//5 26//5
f  26//5 25//5 24//5
f  6//5 26//5 23//5
f  7//5 6//5 23//5
f  27//5 25//5 26//5
f  27//5 26//5 28//5
f  18//6 27//6 28//6
f  18//6 28//6 17//6
f  9//7 2//7 1//7
f  9//7 1//7 20//7
f  23//2 3//2 4//2
f  23//2 4//2 15//2
f  22//8 21//8 11//8
f  22//8 11//8 10//8
f  18//4 14//4 25//4
f  18//4 25//4 27//4
f  23//1 15//1 8//1
f  23//1 8//1 7//1
f  6//6 5//6 16//6
f  6//6 16//6 26//6
f  13//4 11//4 21//4
f  13//4 21//4 24//4
f  25//6 14//6 12//6
f  25//6 12//6 19//6
f  22//1 10//1 13//1
f  22//1 13//1 24//1
f  16//2 17//2 28//2
f  16//2 28//2 26//2

